<svg id="Laag_1" data-name="Laag 1" xmlns="http://www.w3.org/2000/svg" viewBox="0 0 540.26 11.26"><defs><style>.cls-1{fill:#f2f2f2}</style></defs><path class="cls-1" d="M238.34 7.64a5.59 5.59 0 0 0 1.39.73l-.64 1.23a3.89 3.89 0 0 1-.76-.33c-.06 0-.44-.28-1.16-.76a4.52 4.52 0 0 1-1.87.37 4.09 4.09 0 0 1-3.1-1.12 4.49 4.49 0 0 1-1.16-3.32 4.52 4.52 0 0 1 1.16-3.27A4 4 0 0 1 235.26 0a4 4 0 0 1 3 1.17 4.52 4.52 0 0 1 1.14 3.27 5.64 5.64 0 0 1-.31 2 3.78 3.78 0 0 1-.75 1.2Zm-1.39-1a2.69 2.69 0 0 0 .5-.88 4.51 4.51 0 0 0 .17-1.28 3.24 3.24 0 0 0-.66-2.22 2.2 2.2 0 0 0-1.72-.78 2.22 2.22 0 0 0-1.72.74 3.24 3.24 0 0 0-.66 2.22 3.32 3.32 0 0 0 .66 2.25 2.13 2.13 0 0 0 1.67.75 2.08 2.08 0 0 0 .71-.12 5.12 5.12 0 0 0-1.07-.56l.48-1a5.81 5.81 0 0 1 1.64.91Zm6.95-.2V4.76h3.23v1.68Zm13.02-.86 1.68.53a3.73 3.73 0 0 1-1.28 2.09 4.06 4.06 0 0 1-5.1-.49 4.48 4.48 0 0 1-1.1-3.19 4.73 4.73 0 0 1 1.11-3.34A3.8 3.8 0 0 1 255.14 0a3.57 3.57 0 0 1 2.56.93 3.34 3.34 0 0 1 .88 1.58l-1.72.41a1.77 1.77 0 0 0-1.82-1.44 2 2 0 0 0-1.55.69 3.37 3.37 0 0 0-.59 2.22 3.55 3.55 0 0 0 .6 2.37 1.89 1.89 0 0 0 1.52.69 1.75 1.75 0 0 0 1.19-.44 2.55 2.55 0 0 0 .71-1.43Zm4.39-1.17-1.49-.27a2.31 2.31 0 0 1 .87-1.38 3.21 3.21 0 0 1 1.82-.43 4 4 0 0 1 1.64.26 1.68 1.68 0 0 1 .76.66 3.37 3.37 0 0 1 .22 1.51v1.92a6.89 6.89 0 0 0 .08 1.21 4 4 0 0 0 .3.83h-1.65l-.16-.48a.81.81 0 0 0-.06-.2 2.91 2.91 0 0 1-.9.62 2.51 2.51 0 0 1-1 .2 2.13 2.13 0 0 1-1.52-.52 1.71 1.71 0 0 1-.55-1.32 1.76 1.76 0 0 1 .25-.94 1.68 1.68 0 0 1 .71-.63 5.87 5.87 0 0 1 1.31-.38 9 9 0 0 0 1.6-.41v-.15a.85.85 0 0 0-.24-.68 1.44 1.44 0 0 0-.88-.2 1.21 1.21 0 0 0-.69.17 1.25 1.25 0 0 0-.42.61Zm2.21 1.35c-.22.07-.55.15-1 .25a3.29 3.29 0 0 0-.89.28.7.7 0 0 0-.33.58.81.81 0 0 0 .26.6.89.89 0 0 0 .66.25 1.39 1.39 0 0 0 .85-.29 1 1 0 0 0 .39-.54 3.36 3.36 0 0 0 .07-.81Zm4.81 3h-1.64V2.51h1.52v.89a2.72 2.72 0 0 1 .71-.83 1.33 1.33 0 0 1 .71-.2 2.08 2.08 0 0 1 1.09.31l-.51 1.44a1.47 1.47 0 0 0-.78-.27.88.88 0 0 0-.58.19 1.24 1.24 0 0 0-.38.69 9.76 9.76 0 0 0-.14 2.08Zm4.71 0h-1.69V2.51h1.53v.89a2.72 2.72 0 0 1 .71-.83 1.33 1.33 0 0 1 .71-.2 2.08 2.08 0 0 1 1.09.31l-.51 1.44a1.47 1.47 0 0 0-.78-.27.88.88 0 0 0-.58.19 1.24 1.24 0 0 0-.38.72 9.76 9.76 0 0 0-.1 2.05Z"/><path class="cls-1" d="M275.32 2.51h1.72l1.49 4.42 1.51-4.42h1.7l-2.19 6-.4 1.08a4.38 4.38 0 0 1-.41.84 1.79 1.79 0 0 1-.45.46 2 2 0 0 1-.63.28 3.07 3.07 0 0 1-.84.1 4.2 4.2 0 0 1-.93-.1l-.15-1.29a3.76 3.76 0 0 0 .7.08 1 1 0 0 0 .85-.34 2.23 2.23 0 0 0 .42-.86Zm10.95 8.75V0h1.31v11.26Zm11.35-2.5L295.57.17h1.78l1.29 5.9 1.57-5.9h2.06l1.51 6 1.32-6h1.74l-2.08 8.59h-1.84l-1.71-6.42-1.71 6.42Zm13.24-2.32V4.76h3.24v1.68Zm7.53-6.3h3.17a6.08 6.08 0 0 1 1.63.17 2.92 2.92 0 0 1 1.3.79 3.77 3.77 0 0 1 .82 1.39 6.58 6.58 0 0 1 .28 2 5.52 5.52 0 0 1-.27 1.83 3.78 3.78 0 0 1-.92 1.52 3 3 0 0 1-1.21.68 5.37 5.37 0 0 1-1.54.18h-3.26Zm1.73 1.46v5.69h1.3a4.23 4.23 0 0 0 1-.09 1.49 1.49 0 0 0 .7-.35 1.85 1.85 0 0 0 .46-.83 5.55 5.55 0 0 0 .17-1.57 5 5 0 0 0-.17-1.53 2 2 0 0 0-.49-.84 1.63 1.63 0 0 0-.81-.4 7.36 7.36 0 0 0-1.42-.08Zm8.5 7.16h-1.64V2.51h1.53v.89a2.59 2.59 0 0 1 .7-.83 1.33 1.33 0 0 1 .71-.2 2.08 2.08 0 0 1 1.09.31l-.51 1.44a1.47 1.47 0 0 0-.78-.27.88.88 0 0 0-.58.19 1.24 1.24 0 0 0-.38.69 9.76 9.76 0 0 0-.14 2.08Zm2.72-3.23a3.34 3.34 0 0 1 .4-1.58 2.71 2.71 0 0 1 1.15-1.19 3.36 3.36 0 0 1 1.65-.41 3.13 3.13 0 0 1 3.22 3.24 3.24 3.24 0 0 1-.91 2.34 3.09 3.09 0 0 1-2.3.92 3.58 3.58 0 0 1-1.63-.38 2.66 2.66 0 0 1-1.18-1.14 3.74 3.74 0 0 1-.4-1.8Zm1.68.09a2.08 2.08 0 0 0 .44 1.42 1.41 1.41 0 0 0 1.09.49 1.38 1.38 0 0 0 1.08-.49 2.09 2.09 0 0 0 .41-1.43 2.07 2.07 0 0 0-.43-1.41 1.41 1.41 0 0 0-1.06-.44 1.44 1.44 0 0 0-1.09.49 2.1 2.1 0 0 0-.42 1.37Zm6.02-3.11h1.53v.92a2.27 2.27 0 0 1 1.94-1.06 2.35 2.35 0 0 1 1.84.85 3.43 3.43 0 0 1 .69 2.37 3.53 3.53 0 0 1-.76 2.42 2.36 2.36 0 0 1-1.85.86 2 2 0 0 1-.93-.2 3.09 3.09 0 0 1-.88-.7v3.13h-1.58Zm1.63 3a2.45 2.45 0 0 0 .41 1.55 1.3 1.3 0 0 0 1 .5 1.2 1.2 0 0 0 .95-.46 2.34 2.34 0 0 0 .38-1.51 2.24 2.24 0 0 0-.37-1.44 1.2 1.2 0 0 0-1-.48 1.26 1.26 0 0 0-1 .47 2 2 0 0 0-.41 1.38Z"/></svg>